<svg xmlns="http://www.w3.org/2000/svg" xmlns:xlink="http://www.w3.org/1999/xlink" width="3477.152" height="1699.232" viewBox="0 0 3477.152 1699.232">
  <defs>
    <filter id="PO" x="2827.371" y="210.461" width="500" height="196" filterUnits="userSpaceOnUse">
      <feOffset dy="2" input="SourceAlpha"/>
      <feGaussianBlur stdDeviation="5" result="blur"/>
      <feFlood flood-color="#9992c6" flood-opacity="0.8"/>
      <feComposite operator="in" in2="blur"/>
      <feComposite in="SourceGraphic"/>
    </filter>
    <filter id="PO-2" x="2827.371" y="521.861" width="500" height="196" filterUnits="userSpaceOnUse">
      <feOffset dy="2" input="SourceAlpha"/>
      <feGaussianBlur stdDeviation="5" result="blur-2"/>
      <feFlood flood-color="#9992c6" flood-opacity="0.8"/>
      <feComposite operator="in" in2="blur-2"/>
      <feComposite in="SourceGraphic"/>
    </filter>
    <filter id="PO-3" x="2158.805" y="210.461" width="534.57" height="196" filterUnits="userSpaceOnUse">
      <feOffset dy="2" input="SourceAlpha"/>
      <feGaussianBlur stdDeviation="5" result="blur-3"/>
      <feFlood flood-color="#9992c6" flood-opacity="0.8"/>
      <feComposite operator="in" in2="blur-3"/>
      <feComposite in="SourceGraphic"/>
    </filter>
    <filter id="PO-4" x="2158.805" y="521.861" width="534.57" height="196" filterUnits="userSpaceOnUse">
      <feOffset dy="2" input="SourceAlpha"/>
      <feGaussianBlur stdDeviation="5" result="blur-4"/>
      <feFlood flood-color="#9992c6" flood-opacity="0.8"/>
      <feComposite operator="in" in2="blur-4"/>
      <feComposite in="SourceGraphic"/>
    </filter>
    <filter id="PO-5" x="1407.805" y="521.861" width="623.57" height="196" filterUnits="userSpaceOnUse">
      <feOffset dy="2" input="SourceAlpha"/>
      <feGaussianBlur stdDeviation="5" result="blur-5"/>
      <feFlood flood-color="#9992c6" flood-opacity="0.8"/>
      <feComposite operator="in" in2="blur-5"/>
      <feComposite in="SourceGraphic"/>
    </filter>
    <filter id="PO-6" x="2827.371" y="1066.461" width="500" height="196" filterUnits="userSpaceOnUse">
      <feOffset dy="2" input="SourceAlpha"/>
      <feGaussianBlur stdDeviation="5" result="blur-6"/>
      <feFlood flood-color="#9992c6" flood-opacity="0.8"/>
      <feComposite operator="in" in2="blur-6"/>
      <feComposite in="SourceGraphic"/>
    </filter>
    <filter id="PO-7" x="2158.805" y="1066.461" width="534.57" height="196" filterUnits="userSpaceOnUse">
      <feOffset dy="2" input="SourceAlpha"/>
      <feGaussianBlur stdDeviation="5" result="blur-7"/>
      <feFlood flood-color="#9992c6" flood-opacity="0.8"/>
      <feComposite operator="in" in2="blur-7"/>
      <feComposite in="SourceGraphic"/>
    </filter>
    <filter id="PO-8" x="2158.805" y="1377.861" width="534.57" height="196" filterUnits="userSpaceOnUse">
      <feOffset dy="2" input="SourceAlpha"/>
      <feGaussianBlur stdDeviation="5" result="blur-8"/>
      <feFlood flood-color="#9992c6" flood-opacity="0.8"/>
      <feComposite operator="in" in2="blur-8"/>
      <feComposite in="SourceGraphic"/>
    </filter>
    <filter id="PO-9" x="1406.805" y="1066.461" width="623.57" height="196" filterUnits="userSpaceOnUse">
      <feOffset dy="2" input="SourceAlpha"/>
      <feGaussianBlur stdDeviation="5" result="blur-9"/>
      <feFlood flood-color="#9992c6" flood-opacity="0.8"/>
      <feComposite operator="in" in2="blur-9"/>
      <feComposite in="SourceGraphic"/>
    </filter>
    <filter id="PO-10" x="1406.805" y="1430.615" width="623.57" height="196" filterUnits="userSpaceOnUse">
      <feOffset dy="2" input="SourceAlpha"/>
      <feGaussianBlur stdDeviation="5" result="blur-10"/>
      <feFlood flood-color="#9992c6" flood-opacity="0.8"/>
      <feComposite operator="in" in2="blur-10"/>
      <feComposite in="SourceGraphic"/>
    </filter>
    <filter id="PO-11" x="835.719" y="765.615" width="428.57" height="196" filterUnits="userSpaceOnUse">
      <feOffset dy="2" input="SourceAlpha"/>
      <feGaussianBlur stdDeviation="5" result="blur-11"/>
      <feFlood flood-color="#9992c6" flood-opacity="0.8"/>
      <feComposite operator="in" in2="blur-11"/>
      <feComposite in="SourceGraphic"/>
    </filter>
    <filter id="bc" x="73.664" y="670.348" width="601.773" height="386.535" filterUnits="userSpaceOnUse">
      <feOffset dy="2" input="SourceAlpha"/>
      <feGaussianBlur stdDeviation="5" result="blur-12"/>
      <feFlood flood-opacity="0.353"/>
      <feComposite operator="in" in2="blur-12"/>
      <feComposite in="SourceGraphic"/>
    </filter>
    <filter id="Path_1833" x="664.887" y="831.693" width="130.313" height="79.063" filterUnits="userSpaceOnUse">
      <feOffset dy="8" input="SourceAlpha"/>
      <feGaussianBlur stdDeviation="3" result="blur-13"/>
      <feFlood flood-opacity="0.161"/>
      <feComposite operator="in" in2="blur-13"/>
      <feComposite in="SourceGraphic"/>
    </filter>
  </defs>
  <g id="Group_2829" data-name="Group 2829" transform="translate(-35521.723 -21474.617)">
    <g id="kocka_host" transform="translate(35521.723 21474.617)" fill="#fff" stroke="#3f428b" stroke-width="2">
      <rect width="3477.153" height="1699.233" rx="40" stroke="none"/>
      <rect x="1" y="1" width="3475.153" height="1697.233" rx="39" fill="none"/>
    </g>
    <g id="prez" transform="translate(1887.434 -24.4)">
      <g id="NSA">
        <g id="kocka_host-2" data-name="kocka_host" transform="translate(35721.492 21572.4)" fill="#fafafd" stroke="#3f428b" stroke-width="2">
          <rect width="1301.153" height="680.233" rx="40" stroke="none"/>
          <rect x="1" y="1" width="1299.153" height="678.233" rx="39" fill="none"/>
        </g>
        <g id="Group_2804" data-name="Group 2804" transform="translate(36476.66 21722.479)">
          <g transform="matrix(1, 0, 0, 1, -2842.37, -223.46)" filter="url(#PO)">
            <rect id="PO-12" data-name="PO" width="470" height="166" rx="29" transform="translate(2842.37 223.46)" fill="#313671"/>
          </g>
          <g id="Group_2206" data-name="Group 2206" transform="translate(28.626 37.501)">
            <g id="Ellipse_1323" data-name="Ellipse 1323" transform="translate(21.908)" fill="none" stroke="#fff" stroke-width="5">
              <ellipse cx="46" cy="45.5" rx="46" ry="45.5" stroke="none"/>
              <ellipse cx="46" cy="45.5" rx="43.5" ry="43" fill="none"/>
            </g>
            <rect id="Rectangle_791" data-name="Rectangle 791" width="36" height="38" transform="translate(9.908 27)" fill="none"/>
            <g id="Group_2207" data-name="Group 2207" transform="translate(0 30.089)">
              <path id="Path_1833-2" data-name="Path 1833" d="M149.638,79.378a1.411,1.411,0,0,0-.2-.126L127.608,65.113a2.531,2.531,0,0,0-2.488-.06,1,1,0,0,0-.564.8V73.3H96.269c-1.056,0-2.23.149-2.23.744V85.949c.14.755,1.048,1.361,2.23,1.488h28.287v6.7c.017.445.425.847,1.056,1.042h.7a2.467,2.467,0,0,0,1.291-.372L149.44,80.74C150.088,80.4,150.177,79.789,149.638,79.378Z" transform="translate(-72.912 -64.756)" fill="#fff"/>
              <path id="Path_1834" data-name="Path 1834" d="M64.455,122.122c-.972,0-1.761.5-1.761,1.116v11.906c0,.616.788,1.116,1.761,1.116s1.761-.5,1.761-1.116V123.238C66.215,122.622,65.427,122.122,64.455,122.122Z" transform="translate(-48.609 -113.951)" fill="#fff"/>
              <path id="Path_1835" data-name="Path 1835" d="M33.108,122.122c-.972,0-1.761.5-1.761,1.116v11.906c0,.616.788,1.116,1.761,1.116s1.761-.5,1.761-1.116V123.238C34.868,122.622,34.08,122.122,33.108,122.122Z" transform="translate(-24.305 -113.951)" fill="#fff"/>
              <path id="Path_1836" data-name="Path 1836" d="M1.761,122.122c-.972,0-1.761.5-1.761,1.116v11.906c0,.616.788,1.116,1.761,1.116s1.761-.5,1.761-1.116V123.238C3.521,122.622,2.733,122.122,1.761,122.122Z" transform="translate(0 -113.951)" fill="#fff"/>
            </g>
          </g>
          <g id="Group_2806" data-name="Group 2806" transform="translate(162 23.636)">
            <text id="vm" transform="translate(0 39)" fill="#fff" font-size="40" font-family="Montserrat-SemiBold, Montserrat" font-weight="600" letter-spacing="0.01em"><tspan x="0" y="0">Output-</tspan><tspan y="0" font-family="Montserrat-Bold, Montserrat" font-weight="700">01</tspan></text>
            <g id="Group_2805" data-name="Group 2805" transform="translate(0 67.727)">
              <text id="vm-2" data-name="vm" transform="translate(16.866 35.5)" fill="#fff" font-size="28" font-family="Montserrat-Regular, Montserrat" letter-spacing="0.01em"><tspan x="0" y="0">A/app1</tspan></text>
              <g id="PO-13" data-name="PO" fill="none" stroke="#fff" stroke-miterlimit="10" stroke-width="2">
                <rect width="127.733" height="51.002" rx="16" stroke="none"/>
                <rect x="1" y="1" width="125.733" height="49.002" rx="15" fill="none"/>
              </g>
            </g>
          </g>
        </g>
        <g id="Group_2807" data-name="Group 2807" transform="translate(36476.66 22033.879)">
          <g transform="matrix(1, 0, 0, 1, -2842.37, -534.86)" filter="url(#PO-2)">
            <rect id="PO-14" data-name="PO" width="470" height="166" rx="29" transform="translate(2842.37 534.86)" fill="#313671"/>
          </g>
          <g id="Group_2206-2" data-name="Group 2206" transform="translate(28.626 37.501)">
            <g id="Ellipse_1323-2" data-name="Ellipse 1323" transform="translate(21.908)" fill="none" stroke="#fff" stroke-width="5">
              <ellipse cx="46" cy="45.5" rx="46" ry="45.5" stroke="none"/>
              <ellipse cx="46" cy="45.5" rx="43.5" ry="43" fill="none"/>
            </g>
            <rect id="Rectangle_791-2" data-name="Rectangle 791" width="36" height="38" transform="translate(9.908 27)" fill="none"/>
            <g id="Group_2207-2" data-name="Group 2207" transform="translate(0 30.089)">
              <path id="Path_1833-3" data-name="Path 1833" d="M149.638,79.378a1.411,1.411,0,0,0-.2-.126L127.608,65.113a2.531,2.531,0,0,0-2.488-.06,1,1,0,0,0-.564.8V73.3H96.269c-1.056,0-2.23.149-2.23.744V85.949c.14.755,1.048,1.361,2.23,1.488h28.287v6.7c.017.445.425.847,1.056,1.042h.7a2.467,2.467,0,0,0,1.291-.372L149.44,80.74C150.088,80.4,150.177,79.789,149.638,79.378Z" transform="translate(-72.912 -64.756)" fill="#fff"/>
              <path id="Path_1834-2" data-name="Path 1834" d="M64.455,122.122c-.972,0-1.761.5-1.761,1.116v11.906c0,.616.788,1.116,1.761,1.116s1.761-.5,1.761-1.116V123.238C66.215,122.622,65.427,122.122,64.455,122.122Z" transform="translate(-48.609 -113.951)" fill="#fff"/>
              <path id="Path_1835-2" data-name="Path 1835" d="M33.108,122.122c-.972,0-1.761.5-1.761,1.116v11.906c0,.616.788,1.116,1.761,1.116s1.761-.5,1.761-1.116V123.238C34.868,122.622,34.08,122.122,33.108,122.122Z" transform="translate(-24.305 -113.951)" fill="#fff"/>
              <path id="Path_1836-2" data-name="Path 1836" d="M1.761,122.122c-.972,0-1.761.5-1.761,1.116v11.906c0,.616.788,1.116,1.761,1.116s1.761-.5,1.761-1.116V123.238C3.521,122.622,2.733,122.122,1.761,122.122Z" transform="translate(0 -113.951)" fill="#fff"/>
            </g>
          </g>
          <g id="Group_2806-2" data-name="Group 2806" transform="translate(162 23.636)">
            <text id="vm-3" data-name="vm" transform="translate(0 39)" fill="#fff" font-size="40" font-family="Montserrat-SemiBold, Montserrat" font-weight="600" letter-spacing="0.01em"><tspan x="0" y="0">Output-</tspan><tspan y="0" font-family="Montserrat-Bold, Montserrat" font-weight="700">02</tspan></text>
            <g id="Group_2805-2" data-name="Group 2805" transform="translate(0 67.727)">
              <text id="vm-4" data-name="vm" transform="translate(16.866 35.5)" fill="#fff" font-size="28" font-family="Montserrat-Regular, Montserrat" letter-spacing="0.01em"><tspan x="0" y="0">A/app1</tspan></text>
              <g id="PO-15" data-name="PO" fill="none" stroke="#fff" stroke-miterlimit="10" stroke-width="2">
                <rect width="127.733" height="51.002" rx="16" stroke="none"/>
                <rect x="1" y="1" width="125.733" height="49.002" rx="15" fill="none"/>
              </g>
            </g>
            <g id="Group_2808" data-name="Group 2808" transform="translate(146.133 67.727)">
              <text id="vm-5" data-name="vm" transform="translate(16.866 35.5)" fill="#fff" font-size="28" font-family="Montserrat-Regular, Montserrat" letter-spacing="0.01em"><tspan x="0" y="0">A/app2</tspan></text>
              <g id="PO-16" data-name="PO" fill="none" stroke="#fff" stroke-miterlimit="10" stroke-width="2">
                <rect width="127.733" height="51.002" rx="16" stroke="none"/>
                <rect x="1" y="1" width="125.733" height="49.002" rx="15" fill="none"/>
              </g>
            </g>
          </g>
        </g>
        <g id="Group_2809" data-name="Group 2809" transform="translate(35808.094 21722.479)">
          <g transform="matrix(1, 0, 0, 1, -2173.8, -223.46)" filter="url(#PO-3)">
            <rect id="PO-17" data-name="PO" width="504.57" height="166" rx="29" transform="translate(2173.8 223.46)" fill="#424c97"/>
          </g>
          <g id="Group_2206-3" data-name="Group 2206" transform="translate(20.535 37.501)">
            <g id="Ellipse_1323-3" data-name="Ellipse 1323" transform="translate(12)" fill="none" stroke="#fff" stroke-width="5">
              <ellipse cx="46" cy="45.5" rx="46" ry="45.5" stroke="none"/>
              <ellipse cx="46" cy="45.5" rx="43.5" ry="43" fill="none"/>
            </g>
            <rect id="Rectangle_791-3" data-name="Rectangle 791" width="36" height="38" transform="translate(0 27)" fill="none"/>
            <line id="Line_643" data-name="Line 643" y2="48.964" transform="translate(58.001 21.018)" fill="none" stroke="#fff" stroke-linecap="round" stroke-width="6"/>
            <line id="Line_644" data-name="Line 644" y2="48.964" transform="translate(82.483 45.5) rotate(90)" fill="none" stroke="#fff" stroke-linecap="round" stroke-width="6"/>
          </g>
          <g id="Group_2806-3" data-name="Group 2806" transform="translate(144 23.636)">
            <text id="vm-6" data-name="vm" transform="translate(0 39)" fill="#fff" font-size="40" font-family="Montserrat-SemiBold, Montserrat" font-weight="600" letter-spacing="0.01em"><tspan x="0" y="0">Subscription </tspan><tspan y="0" font-family="Montserrat-Bold, Montserrat" font-weight="700">S1</tspan></text>
            <g id="Group_2805-3" data-name="Group 2805" transform="translate(6 67.727)">
              <text id="vm-7" data-name="vm" transform="translate(16.866 35.5)" fill="#fff" font-size="28" font-family="Montserrat-Regular, Montserrat" letter-spacing="0.01em"><tspan x="0" y="0">A/app1</tspan></text>
              <g id="PO-18" data-name="PO" fill="none" stroke="#fff" stroke-miterlimit="10" stroke-width="2">
                <rect width="127.733" height="51.002" rx="16" stroke="none"/>
                <rect x="1" y="1" width="125.733" height="49.002" rx="15" fill="none"/>
              </g>
            </g>
          </g>
        </g>
        <g id="Group_2810" data-name="Group 2810" transform="translate(35808.094 22033.879)">
          <g transform="matrix(1, 0, 0, 1, -2173.8, -534.86)" filter="url(#PO-4)">
            <rect id="PO-19" data-name="PO" width="504.57" height="166" rx="29" transform="translate(2173.8 534.86)" fill="#424c97"/>
          </g>
          <g id="Group_2206-4" data-name="Group 2206" transform="translate(32.535 37.501)">
            <g id="Ellipse_1323-4" data-name="Ellipse 1323" fill="none" stroke="#fff" stroke-width="5">
              <ellipse cx="46" cy="45.5" rx="46" ry="45.5" stroke="none"/>
              <ellipse cx="46" cy="45.5" rx="43.5" ry="43" fill="none"/>
            </g>
            <text id="vm-8" data-name="vm" transform="translate(34.502 60)" fill="#fff" font-size="40" font-family="Montserrat-SemiBold, Montserrat" font-weight="600" letter-spacing="0.01em"><tspan x="0" y="0">?</tspan></text>
          </g>
          <g id="Group_2806-4" data-name="Group 2806" transform="translate(149 23.636)">
            <text id="vm-9" data-name="vm" transform="translate(0 39)" fill="#fff" font-size="40" font-family="Montserrat-SemiBold, Montserrat" font-weight="600" letter-spacing="0.01em"><tspan x="0" y="0">Unmatched</tspan></text>
            <g id="Group_2805-4" data-name="Group 2805" transform="translate(0 67.727)">
              <text id="vm-10" data-name="vm" transform="translate(12.866 35.5)" fill="#fff" font-size="28" font-family="Montserrat-Regular, Montserrat" letter-spacing="0.01em"><tspan x="0" y="0">A/other</tspan></text>
              <g id="PO-20" data-name="PO" fill="none" stroke="#fff" stroke-miterlimit="10" stroke-width="2">
                <rect width="127.733" height="51.002" rx="16" stroke="none"/>
                <rect x="1" y="1" width="125.733" height="49.002" rx="15" fill="none"/>
              </g>
            </g>
          </g>
        </g>
        <g id="Group_2811" data-name="Group 2811" transform="translate(35057.094 22033.879)">
          <g transform="matrix(1, 0, 0, 1, -1422.8, -534.86)" filter="url(#PO-5)">
            <rect id="PO-21" data-name="PO" width="593.57" height="166" rx="29" transform="translate(1422.8 534.86)" fill="#496bb8"/>
          </g>
          <g id="Group_2206-5" data-name="Group 2206" transform="translate(20.535 37.501)">
            <g id="Ellipse_1323-5" data-name="Ellipse 1323" transform="translate(12)" fill="none" stroke="#fff" stroke-width="5">
              <ellipse cx="46" cy="45.5" rx="46" ry="45.5" stroke="none"/>
              <ellipse cx="46" cy="45.5" rx="43.5" ry="43" fill="none"/>
            </g>
            <rect id="Rectangle_791-4" data-name="Rectangle 791" width="36" height="38" transform="translate(0 27)" fill="none"/>
            <path id="Path_7942" data-name="Path 7942" d="M105.148,63.368a6.982,6.982,0,1,1-6.774,6.979,6.9,6.9,0,0,1,6.774-6.979m0,24.973a14.489,14.489,0,0,1,6.568,1.539,16.563,16.563,0,0,1,5.508,4.55,23.666,23.666,0,0,1,3.934,7.629,29.888,29.888,0,0,1,1.3,6.534H87.8a35.647,35.647,0,0,1,1.3-6.534,23.666,23.666,0,0,1,3.934-7.629,16.161,16.161,0,0,1,5.508-4.55,14.63,14.63,0,0,1,6.6-1.539m0-29.01a11.018,11.018,0,1,0,10.81,11.016,10.9,10.9,0,0,0-10.81-11.016Zm0,24.973C93.242,84.3,83.6,95.252,83.6,112.631h43.1c0-17.379-9.647-28.326-21.552-28.326Z" transform="translate(-47.146 -43.631)" fill="#fff"/>
          </g>
          <g id="Group_2806-5" data-name="Group 2806" transform="translate(144 23.636)">
            <text id="vm-11" data-name="vm" transform="translate(0 39)" fill="#fff" font-size="40" font-family="Montserrat-SemiBold, Montserrat" font-weight="600" letter-spacing="0.01em"><tspan x="0" y="0">Tenant </tspan><tspan y="0" font-family="Montserrat-Bold, Montserrat" font-weight="700">T1</tspan></text>
            <g id="Group_2805-5" data-name="Group 2805" transform="translate(6 67.727)">
              <text id="vm-12" data-name="vm" transform="translate(16.866 35.5)" fill="#fff" font-size="28" font-family="Montserrat-Regular, Montserrat" letter-spacing="0.01em"><tspan x="0" y="0">A/app1</tspan></text>
              <g id="PO-22" data-name="PO" fill="none" stroke="#fff" stroke-miterlimit="10" stroke-width="2">
                <rect width="127.733" height="51.002" rx="16" stroke="none"/>
                <rect x="1" y="1" width="125.733" height="49.002" rx="15" fill="none"/>
              </g>
            </g>
            <g id="Group_2812" data-name="Group 2812" transform="translate(148 67.727)">
              <text id="vm-13" data-name="vm" transform="translate(16.866 35.5)" fill="#fff" font-size="28" font-family="Montserrat-Regular, Montserrat" letter-spacing="0.01em"><tspan x="0" y="0">A/app1</tspan></text>
              <g id="PO-23" data-name="PO" fill="none" stroke="#fff" stroke-miterlimit="10" stroke-width="2">
                <rect width="127.733" height="51.002" rx="16" stroke="none"/>
                <rect x="1" y="1" width="125.733" height="49.002" rx="15" fill="none"/>
              </g>
            </g>
            <g id="Group_2813" data-name="Group 2813" transform="translate(290 67.727)">
              <text id="vm-14" data-name="vm" transform="translate(10.866 35.501)" fill="#fff" font-size="28" font-family="Montserrat-Regular, Montserrat" letter-spacing="0.01em"><tspan x="0" y="0">A/other</tspan></text>
              <g id="PO-24" data-name="PO" fill="none" stroke="#fff" stroke-miterlimit="10" stroke-width="2">
                <rect width="127.733" height="51.002" rx="16" stroke="none"/>
                <rect x="1" y="1" width="125.733" height="49.002" rx="15" fill="none"/>
              </g>
            </g>
          </g>
        </g>
        <text id="Namespace:_A" data-name="Namespace: A" transform="translate(35869.566 21659.4)" fill="#313671" font-size="58" font-family="Montserrat-Regular, Montserrat" letter-spacing="-0.063em"><tspan x="0" y="0">Namespace: </tspan><tspan y="0" font-family="Montserrat-Bold, Montserrat" font-weight="700">A</tspan></text>
        <path id="path3059" d="M146.684,274.06a2.2,2.2,0,0,0-2.076,2.307c0,.019,0,.038,0,.058,0,.173-.01.382,0,.532a17.314,17.314,0,0,0,.284,1.974,19.388,19.388,0,0,1,.231,3.766,2.265,2.265,0,0,1-.674,1.073l-.049.878a27.012,27.012,0,0,0-3.752.577,26.7,26.7,0,0,0-13.564,7.749c-.229-.156-.63-.444-.75-.532a1.64,1.64,0,0,1-1.233-.12,19.384,19.384,0,0,1-2.8-2.528,17.3,17.3,0,0,0-1.366-1.451c-.127-.109-.32-.256-.461-.368a2.469,2.469,0,0,0-1.446-.546,2,2,0,0,0-1.654.732,2.2,2.2,0,0,0,.51,3.06l.031.022c.137.111.3.253.43.346a17.305,17.305,0,0,0,1.721,1.007,19.378,19.378,0,0,1,3.087,2.169,2.309,2.309,0,0,1,.417,1.2l.665.594A26.862,26.862,0,0,0,120,315.283l-.869.253a2.877,2.877,0,0,1-.892.9,19.379,19.379,0,0,1-3.721.612,17.371,17.371,0,0,0-1.992.16c-.159.03-.38.088-.554.129l-.018,0-.031.009a2.083,2.083,0,1,0,.923,4.045l.031,0c.014,0,.026-.01.04-.013.172-.038.387-.08.537-.12a17.35,17.35,0,0,0,1.863-.714,19.412,19.412,0,0,1,3.619-1.065,2.292,2.292,0,0,1,1.193.421l.9-.155A27.014,27.014,0,0,0,133,334.693l-.377.9a2.057,2.057,0,0,1,.185,1.174,20.282,20.282,0,0,1-1.879,3.377,17.385,17.385,0,0,0-1.113,1.659c-.082.156-.187.394-.266.559a2.084,2.084,0,1,0,3.748,1.779l0,0s0,0,0,0c.079-.162.191-.375.257-.528a17.312,17.312,0,0,0,.6-1.9c.549-1.38.851-2.827,1.607-3.729a1.682,1.682,0,0,1,.895-.436l.47-.852a26.867,26.867,0,0,0,19.157.049c.132.234.378.685.444.8a1.643,1.643,0,0,1,1.06.643,19.377,19.377,0,0,1,1.424,3.491,17.372,17.372,0,0,0,.6,1.9c.067.154.178.37.257.532a2.085,2.085,0,1,0,3.752-1.774c-.079-.164-.188-.4-.271-.559a17.312,17.312,0,0,0-1.113-1.655,19.4,19.4,0,0,1-1.841-3.3,1.628,1.628,0,0,1,.16-1.224,7.142,7.142,0,0,1-.346-.838,27.013,27.013,0,0,0,11.967-15.054c.269.042.735.125.887.155a1.64,1.64,0,0,1,1.162-.43,19.41,19.41,0,0,1,3.619,1.065,17.38,17.38,0,0,0,1.863.719c.15.04.365.078.537.115.014,0,.026.01.04.013l.031,0a2.083,2.083,0,1,0,.923-4.045c-.178-.04-.43-.109-.6-.142a17.363,17.363,0,0,0-1.991-.16,19.383,19.383,0,0,1-3.721-.612,2.328,2.328,0,0,1-.9-.9l-.838-.244a26.967,26.967,0,0,0-4.325-18.682c.215-.2.621-.555.736-.661a1.639,1.639,0,0,1,.39-1.175,19.372,19.372,0,0,1,3.087-2.169,17.358,17.358,0,0,0,1.725-1.007c.134-.1.316-.255.457-.368a2.087,2.087,0,1,0-2.586-3.247c-.142.112-.334.259-.461.368a17.349,17.349,0,0,0-1.371,1.45,19.448,19.448,0,0,1-2.8,2.533,2.312,2.312,0,0,1-1.26.138l-.79.563a27.206,27.206,0,0,0-17.232-8.326c-.018-.277-.043-.777-.049-.927a1.642,1.642,0,0,1-.679-1.038,19.427,19.427,0,0,1,.235-3.766,17.31,17.31,0,0,0,.284-1.974c.006-.167,0-.409,0-.59A2.2,2.2,0,0,0,146.684,274.06Zm-2.6,16.1-.617,10.889-.044.022a1.83,1.83,0,0,1-2.905,1.4l-.018.009-8.929-6.329a21.385,21.385,0,0,1,10.3-5.611A21.9,21.9,0,0,1,144.084,290.161Zm5.2,0a21.563,21.563,0,0,1,12.437,6l-8.871,6.289-.031-.013a1.833,1.833,0,0,1-2.91-1.4l-.009,0Zm-20.953,10.06,8.152,7.292-.009.044a1.829,1.829,0,0,1-.719,3.145l-.009.035-10.45,3.016A21.38,21.38,0,0,1,128.334,300.22Zm36.642,0a21.776,21.776,0,0,1,3.127,13.493l-10.5-3.025-.009-.044a1.831,1.831,0,0,1-.719-3.145l0-.022Zm-19.964,7.851h3.34l2.076,2.595-.745,3.238-3,1.441-3.007-1.446-.745-3.238Zm10.707,8.88a1.813,1.813,0,0,1,.421.031l.018-.022,10.809,1.827a21.407,21.407,0,0,1-8.654,10.871l-4.2-10.135.013-.018a1.837,1.837,0,0,1,1.588-2.555ZM137.564,317a1.83,1.83,0,0,1,1.654,2.55l.031.04L135.1,329.623a21.494,21.494,0,0,1-8.627-10.8l10.716-1.819.018.022A1.853,1.853,0,0,1,137.564,317Zm9.053,4.4a1.846,1.846,0,0,1,1.677.962h.04l5.283,9.545a21.921,21.921,0,0,1-2.111.59,21.466,21.466,0,0,1-11.714-.6l5.269-9.527h.009A1.832,1.832,0,0,1,146.617,321.4Z" transform="translate(35675.32 21328.896)" fill="#313671" stroke="#fff" stroke-width="0.25"/>
      </g>
      <g id="NSB" transform="translate(0 856)">
        <g id="kocka_host-3" data-name="kocka_host" transform="translate(35721.492 21572.4)" fill="#fafafd" stroke="#3f428b" stroke-width="2">
          <rect width="1301.153" height="680.233" rx="40" stroke="none"/>
          <rect x="1" y="1" width="1299.153" height="678.233" rx="39" fill="none"/>
        </g>
        <g id="Group_2804-2" data-name="Group 2804" transform="translate(36476.66 21722.479)">
          <g transform="matrix(1, 0, 0, 1, -2842.37, -1079.46)" filter="url(#PO-6)">
            <rect id="PO-25" data-name="PO" width="470" height="166" rx="29" transform="translate(2842.37 1079.46)" fill="#313671"/>
          </g>
          <g id="Group_2206-6" data-name="Group 2206" transform="translate(28.626 37.501)">
            <g id="Ellipse_1323-6" data-name="Ellipse 1323" transform="translate(21.908)" fill="none" stroke="#fff" stroke-width="5">
              <ellipse cx="46" cy="45.5" rx="46" ry="45.5" stroke="none"/>
              <ellipse cx="46" cy="45.5" rx="43.5" ry="43" fill="none"/>
            </g>
            <rect id="Rectangle_791-5" data-name="Rectangle 791" width="36" height="38" transform="translate(9.908 27)" fill="none"/>
            <g id="Group_2207-3" data-name="Group 2207" transform="translate(0 30.089)">
              <path id="Path_1833-4" data-name="Path 1833" d="M149.638,79.378a1.411,1.411,0,0,0-.2-.126L127.608,65.113a2.531,2.531,0,0,0-2.488-.06,1,1,0,0,0-.564.8V73.3H96.269c-1.056,0-2.23.149-2.23.744V85.949c.14.755,1.048,1.361,2.23,1.488h28.287v6.7c.017.445.425.847,1.056,1.042h.7a2.467,2.467,0,0,0,1.291-.372L149.44,80.74C150.088,80.4,150.177,79.789,149.638,79.378Z" transform="translate(-72.912 -64.756)" fill="#fff"/>
              <path id="Path_1834-3" data-name="Path 1834" d="M64.455,122.122c-.972,0-1.761.5-1.761,1.116v11.906c0,.616.788,1.116,1.761,1.116s1.761-.5,1.761-1.116V123.238C66.215,122.622,65.427,122.122,64.455,122.122Z" transform="translate(-48.609 -113.951)" fill="#fff"/>
              <path id="Path_1835-3" data-name="Path 1835" d="M33.108,122.122c-.972,0-1.761.5-1.761,1.116v11.906c0,.616.788,1.116,1.761,1.116s1.761-.5,1.761-1.116V123.238C34.868,122.622,34.08,122.122,33.108,122.122Z" transform="translate(-24.305 -113.951)" fill="#fff"/>
              <path id="Path_1836-3" data-name="Path 1836" d="M1.761,122.122c-.972,0-1.761.5-1.761,1.116v11.906c0,.616.788,1.116,1.761,1.116s1.761-.5,1.761-1.116V123.238C3.521,122.622,2.733,122.122,1.761,122.122Z" transform="translate(0 -113.951)" fill="#fff"/>
            </g>
          </g>
          <g id="Group_2806-6" data-name="Group 2806" transform="translate(162 23.636)">
            <text id="vm-15" data-name="vm" transform="translate(0 39)" fill="#fff" font-size="40" font-family="Montserrat-SemiBold, Montserrat" font-weight="600" letter-spacing="0.01em"><tspan x="0" y="0">Output-</tspan><tspan y="0" font-family="Montserrat-Bold, Montserrat" font-weight="700">01</tspan></text>
            <g id="Group_2805-6" data-name="Group 2805" transform="translate(0 67.727)">
              <text id="vm-16" data-name="vm" transform="translate(12.366 35.501)" fill="#fff" font-size="28" font-family="Montserrat-Regular, Montserrat" letter-spacing="0.01em"><tspan x="0" y="0">B/appX</tspan></text>
              <g id="PO-26" data-name="PO" fill="none" stroke="#fff" stroke-miterlimit="10" stroke-width="2">
                <rect width="127.733" height="51.002" rx="16" stroke="none"/>
                <rect x="1" y="1" width="125.733" height="49.002" rx="15" fill="none"/>
              </g>
            </g>
          </g>
        </g>
        <g id="Group_2809-2" data-name="Group 2809" transform="translate(35808.094 21722.479)">
          <g transform="matrix(1, 0, 0, 1, -2173.8, -1079.46)" filter="url(#PO-7)">
            <rect id="PO-27" data-name="PO" width="504.57" height="166" rx="29" transform="translate(2173.8 1079.46)" fill="#424c97"/>
          </g>
          <g id="Group_2206-7" data-name="Group 2206" transform="translate(20.535 37.501)">
            <g id="Ellipse_1323-7" data-name="Ellipse 1323" transform="translate(12)" fill="none" stroke="#fff" stroke-width="5">
              <ellipse cx="46" cy="45.5" rx="46" ry="45.5" stroke="none"/>
              <ellipse cx="46" cy="45.5" rx="43.5" ry="43" fill="none"/>
            </g>
            <rect id="Rectangle_791-6" data-name="Rectangle 791" width="36" height="38" transform="translate(0 27)" fill="none"/>
            <line id="Line_643-2" data-name="Line 643" y2="48.964" transform="translate(58.001 21.018)" fill="none" stroke="#fff" stroke-linecap="round" stroke-width="6"/>
            <line id="Line_644-2" data-name="Line 644" y2="48.964" transform="translate(82.483 45.5) rotate(90)" fill="none" stroke="#fff" stroke-linecap="round" stroke-width="6"/>
          </g>
          <g id="Group_2806-7" data-name="Group 2806" transform="translate(144 23.636)">
            <text id="vm-17" data-name="vm" transform="translate(0 39)" fill="#fff" font-size="40" font-family="Montserrat-SemiBold, Montserrat" font-weight="600" letter-spacing="0.01em"><tspan x="0" y="0">Subscription </tspan><tspan y="0" font-family="Montserrat-Bold, Montserrat" font-weight="700">S1</tspan></text>
            <g id="Group_2805-7" data-name="Group 2805" transform="translate(6 67.727)">
              <text id="vm-18" data-name="vm" transform="translate(12.866 35.501)" fill="#fff" font-size="28" font-family="Montserrat-Regular, Montserrat" letter-spacing="0.01em"><tspan x="0" y="0">B/appX</tspan></text>
              <g id="PO-28" data-name="PO" fill="none" stroke="#fff" stroke-miterlimit="10" stroke-width="2">
                <rect width="127.733" height="51.002" rx="16" stroke="none"/>
                <rect x="1" y="1" width="125.733" height="49.002" rx="15" fill="none"/>
              </g>
            </g>
          </g>
          <path id="Path_7952" data-name="Path 7952" d="M-.025.016H140.1" transform="translate(510.596 82.986)" fill="none" stroke="#424c97" stroke-linecap="round" stroke-width="8"/>
          <path id="Polygon_744" data-name="Polygon 744" d="M11.226,6.737a3,3,0,0,1,5.548,0l9.52,23.121A3,3,0,0,1,23.52,34H4.48a3,3,0,0,1-2.774-4.142Z" transform="translate(672.52 69.002) rotate(90)" fill="#424c97"/>
          <g id="Ellipse_1439" data-name="Ellipse 1439" transform="translate(515.348 70) rotate(90)" fill="#fff" stroke="#424c97" stroke-width="4">
            <circle cx="13" cy="13" r="13" stroke="none"/>
            <circle cx="13" cy="13" r="11" fill="none"/>
          </g>
        </g>
        <g id="Group_2810-2" data-name="Group 2810" transform="translate(35808.094 22033.879)">
          <g transform="matrix(1, 0, 0, 1, -2173.8, -1390.86)" filter="url(#PO-8)">
            <rect id="PO-29" data-name="PO" width="504.57" height="166" rx="29" transform="translate(2173.8 1390.86)" fill="#424c97"/>
          </g>
          <g id="Group_2206-8" data-name="Group 2206" transform="translate(32.535 37.501)">
            <g id="Ellipse_1323-8" data-name="Ellipse 1323" fill="none" stroke="#fff" stroke-width="5">
              <ellipse cx="46" cy="45.5" rx="46" ry="45.5" stroke="none"/>
              <ellipse cx="46" cy="45.5" rx="43.5" ry="43" fill="none"/>
            </g>
            <text id="vm-19" data-name="vm" transform="translate(34.502 60)" fill="#fff" font-size="40" font-family="Montserrat-SemiBold, Montserrat" font-weight="600" letter-spacing="0.01em"><tspan x="0" y="0">?</tspan></text>
          </g>
          <g id="Group_2806-8" data-name="Group 2806" transform="translate(149 23.636)">
            <text id="vm-20" data-name="vm" transform="translate(0 39)" fill="#fff" font-size="40" font-family="Montserrat-SemiBold, Montserrat" font-weight="600" letter-spacing="0.01em"><tspan x="0" y="0">Unmatched</tspan></text>
            <g id="Group_2805-8" data-name="Group 2805" transform="translate(0 67.727)">
              <text id="vm-21" data-name="vm" transform="translate(12.866 35.5)" fill="#fff" font-size="28" font-family="Montserrat-Regular, Montserrat" letter-spacing="0.01em"><tspan x="0" y="0">B/other</tspan></text>
              <g id="PO-30" data-name="PO" fill="none" stroke="#fff" stroke-miterlimit="10" stroke-width="2">
                <rect width="127.733" height="51.002" rx="16" stroke="none"/>
                <rect x="1" y="1" width="125.733" height="49.002" rx="15" fill="none"/>
              </g>
            </g>
          </g>
        </g>
        <g id="Group_2811-2" data-name="Group 2811" transform="translate(35056.094 21722.479)">
          <g transform="matrix(1, 0, 0, 1, -1421.8, -1079.46)" filter="url(#PO-9)">
            <rect id="PO-31" data-name="PO" width="593.57" height="166" rx="29" transform="translate(1421.8 1079.46)" fill="#496bb8"/>
          </g>
          <g id="Group_2206-9" data-name="Group 2206" transform="translate(20.535 37.501)">
            <g id="Ellipse_1323-9" data-name="Ellipse 1323" transform="translate(12)" fill="none" stroke="#fff" stroke-width="5">
              <ellipse cx="46" cy="45.5" rx="46" ry="45.5" stroke="none"/>
              <ellipse cx="46" cy="45.5" rx="43.5" ry="43" fill="none"/>
            </g>
            <rect id="Rectangle_791-7" data-name="Rectangle 791" width="36" height="38" transform="translate(0 27)" fill="none"/>
            <path id="Path_7942-2" data-name="Path 7942" d="M105.148,63.368a6.982,6.982,0,1,1-6.774,6.979,6.9,6.9,0,0,1,6.774-6.979m0,24.973a14.489,14.489,0,0,1,6.568,1.539,16.563,16.563,0,0,1,5.508,4.55,23.666,23.666,0,0,1,3.934,7.629,29.888,29.888,0,0,1,1.3,6.534H87.8a35.647,35.647,0,0,1,1.3-6.534,23.666,23.666,0,0,1,3.934-7.629,16.161,16.161,0,0,1,5.508-4.55,14.63,14.63,0,0,1,6.6-1.539m0-29.01a11.018,11.018,0,1,0,10.81,11.016,10.9,10.9,0,0,0-10.81-11.016Zm0,24.973C93.242,84.3,83.6,95.252,83.6,112.631h43.1c0-17.379-9.647-28.326-21.552-28.326Z" transform="translate(-47.146 -43.631)" fill="#fff"/>
          </g>
          <g id="Group_2806-9" data-name="Group 2806" transform="translate(144 23.636)">
            <text id="vm-22" data-name="vm" transform="translate(0 39)" fill="#fff" font-size="40" font-family="Montserrat-SemiBold, Montserrat" font-weight="600" letter-spacing="0.01em"><tspan x="0" y="0">Tenant </tspan><tspan y="0" font-family="Montserrat-Bold, Montserrat" font-weight="700">T2</tspan></text>
            <g id="Group_2805-9" data-name="Group 2805" transform="translate(6 67.727)">
              <text id="vm-23" data-name="vm" transform="translate(12.366 35.501)" fill="#fff" font-size="28" font-family="Montserrat-Regular, Montserrat" letter-spacing="0.01em"><tspan x="0" y="0">B/appX</tspan></text>
              <g id="PO-32" data-name="PO" fill="none" stroke="#fff" stroke-miterlimit="10" stroke-width="2">
                <rect width="127.733" height="51.002" rx="16" stroke="none"/>
                <rect x="1" y="1" width="125.733" height="49.002" rx="15" fill="none"/>
              </g>
            </g>
          </g>
        </g>
        <text id="Namespace:_B" data-name="Namespace: B" transform="translate(35869.566 21659.4)" fill="#313671" font-size="58" font-family="Montserrat-Regular, Montserrat" letter-spacing="-0.063em"><tspan x="0" y="0">Namespace: </tspan><tspan y="0" font-family="Montserrat-Bold, Montserrat" font-weight="700">B</tspan></text>
        <path id="path3059-2" data-name="path3059" d="M146.684,274.06a2.2,2.2,0,0,0-2.076,2.307c0,.019,0,.038,0,.058,0,.173-.01.382,0,.532a17.314,17.314,0,0,0,.284,1.974,19.388,19.388,0,0,1,.231,3.766,2.265,2.265,0,0,1-.674,1.073l-.049.878a27.012,27.012,0,0,0-3.752.577,26.7,26.7,0,0,0-13.564,7.749c-.229-.156-.63-.444-.75-.532a1.64,1.64,0,0,1-1.233-.12,19.384,19.384,0,0,1-2.8-2.528,17.3,17.3,0,0,0-1.366-1.451c-.127-.109-.32-.256-.461-.368a2.469,2.469,0,0,0-1.446-.546,2,2,0,0,0-1.654.732,2.2,2.2,0,0,0,.51,3.06l.031.022c.137.111.3.253.43.346a17.305,17.305,0,0,0,1.721,1.007,19.378,19.378,0,0,1,3.087,2.169,2.309,2.309,0,0,1,.417,1.2l.665.594A26.862,26.862,0,0,0,120,315.283l-.869.253a2.877,2.877,0,0,1-.892.9,19.379,19.379,0,0,1-3.721.612,17.371,17.371,0,0,0-1.992.16c-.159.03-.38.088-.554.129l-.018,0-.031.009a2.083,2.083,0,1,0,.923,4.045l.031,0c.014,0,.026-.01.04-.013.172-.038.387-.08.537-.12a17.35,17.35,0,0,0,1.863-.714,19.412,19.412,0,0,1,3.619-1.065,2.292,2.292,0,0,1,1.193.421l.9-.155A27.014,27.014,0,0,0,133,334.693l-.377.9a2.057,2.057,0,0,1,.185,1.174,20.282,20.282,0,0,1-1.879,3.377,17.385,17.385,0,0,0-1.113,1.659c-.082.156-.187.394-.266.559a2.084,2.084,0,1,0,3.748,1.779l0,0s0,0,0,0c.079-.162.191-.375.257-.528a17.312,17.312,0,0,0,.6-1.9c.549-1.38.851-2.827,1.607-3.729a1.682,1.682,0,0,1,.895-.436l.47-.852a26.867,26.867,0,0,0,19.157.049c.132.234.378.685.444.8a1.643,1.643,0,0,1,1.06.643,19.377,19.377,0,0,1,1.424,3.491,17.372,17.372,0,0,0,.6,1.9c.067.154.178.37.257.532a2.085,2.085,0,1,0,3.752-1.774c-.079-.164-.188-.4-.271-.559a17.312,17.312,0,0,0-1.113-1.655,19.4,19.4,0,0,1-1.841-3.3,1.628,1.628,0,0,1,.16-1.224,7.142,7.142,0,0,1-.346-.838,27.013,27.013,0,0,0,11.967-15.054c.269.042.735.125.887.155a1.64,1.64,0,0,1,1.162-.43,19.41,19.41,0,0,1,3.619,1.065,17.38,17.38,0,0,0,1.863.719c.15.04.365.078.537.115.014,0,.026.01.04.013l.031,0a2.083,2.083,0,1,0,.923-4.045c-.178-.04-.43-.109-.6-.142a17.363,17.363,0,0,0-1.991-.16,19.383,19.383,0,0,1-3.721-.612,2.328,2.328,0,0,1-.9-.9l-.838-.244a26.967,26.967,0,0,0-4.325-18.682c.215-.2.621-.555.736-.661a1.639,1.639,0,0,1,.39-1.175,19.372,19.372,0,0,1,3.087-2.169,17.358,17.358,0,0,0,1.725-1.007c.134-.1.316-.255.457-.368a2.087,2.087,0,1,0-2.586-3.247c-.142.112-.334.259-.461.368a17.349,17.349,0,0,0-1.371,1.45,19.448,19.448,0,0,1-2.8,2.533,2.312,2.312,0,0,1-1.26.138l-.79.563a27.206,27.206,0,0,0-17.232-8.326c-.018-.277-.043-.777-.049-.927a1.642,1.642,0,0,1-.679-1.038,19.427,19.427,0,0,1,.235-3.766,17.31,17.31,0,0,0,.284-1.974c.006-.167,0-.409,0-.59A2.2,2.2,0,0,0,146.684,274.06Zm-2.6,16.1-.617,10.889-.044.022a1.83,1.83,0,0,1-2.905,1.4l-.018.009-8.929-6.329a21.385,21.385,0,0,1,10.3-5.611A21.9,21.9,0,0,1,144.084,290.161Zm5.2,0a21.563,21.563,0,0,1,12.437,6l-8.871,6.289-.031-.013a1.833,1.833,0,0,1-2.91-1.4l-.009,0Zm-20.953,10.06,8.152,7.292-.009.044a1.829,1.829,0,0,1-.719,3.145l-.009.035-10.45,3.016A21.38,21.38,0,0,1,128.334,300.22Zm36.642,0a21.776,21.776,0,0,1,3.127,13.493l-10.5-3.025-.009-.044a1.831,1.831,0,0,1-.719-3.145l0-.022Zm-19.964,7.851h3.34l2.076,2.595-.745,3.238-3,1.441-3.007-1.446-.745-3.238Zm10.707,8.88a1.813,1.813,0,0,1,.421.031l.018-.022,10.809,1.827a21.407,21.407,0,0,1-8.654,10.871l-4.2-10.135.013-.018a1.837,1.837,0,0,1,1.588-2.555ZM137.564,317a1.83,1.83,0,0,1,1.654,2.55l.031.04L135.1,329.623a21.494,21.494,0,0,1-8.627-10.8l10.716-1.819.018.022A1.853,1.853,0,0,1,137.564,317Zm9.053,4.4a1.846,1.846,0,0,1,1.677.962h.04l5.283,9.545a21.921,21.921,0,0,1-2.111.59,21.466,21.466,0,0,1-11.714-.6l5.269-9.527h.009A1.832,1.832,0,0,1,146.617,321.4Z" transform="translate(35675.32 21328.896)" fill="#313671" stroke="#fff" stroke-width="0.25"/>
        <g id="Group_2814" data-name="Group 2814" transform="translate(35056.094 22086.633)">
          <g transform="matrix(1, 0, 0, 1, -1421.8, -1443.62)" filter="url(#PO-10)">
            <rect id="PO-33" data-name="PO" width="593.57" height="166" rx="29" transform="translate(1421.8 1443.62)" fill="#424c97"/>
          </g>
          <g id="Group_2206-10" data-name="Group 2206" transform="translate(20.535 37.501)">
            <g id="Ellipse_1323-10" data-name="Ellipse 1323" transform="translate(12)" fill="none" stroke="#fff" stroke-width="5">
              <ellipse cx="46" cy="45.5" rx="46" ry="45.5" stroke="none"/>
              <ellipse cx="46" cy="45.5" rx="43.5" ry="43" fill="none"/>
            </g>
            <rect id="Rectangle_791-8" data-name="Rectangle 791" width="36" height="38" transform="translate(0 27)" fill="none"/>
          </g>
          <g id="Group_2806-10" data-name="Group 2806" transform="translate(144 23.636)">
            <text id="vm-24" data-name="vm" transform="translate(0 39)" fill="#fff" font-size="40" font-family="Montserrat-SemiBold, Montserrat" font-weight="600" letter-spacing="0.01em"><tspan x="0" y="0">Unmatched</tspan></text>
            <g id="Group_2805-10" data-name="Group 2805" transform="translate(6 67.727)">
              <text id="vm-25" data-name="vm" transform="translate(12.366 35.501)" fill="#fff" font-size="28" font-family="Montserrat-Regular, Montserrat" letter-spacing="0.01em"><tspan x="0" y="0">C/other</tspan></text>
              <g id="PO-34" data-name="PO" fill="none" stroke="#fff" stroke-miterlimit="10" stroke-width="2">
                <rect width="127.733" height="51.002" rx="16" stroke="none"/>
                <rect x="1" y="1" width="125.733" height="49.002" rx="15" fill="none"/>
              </g>
            </g>
          </g>
          <text id="vm-26" data-name="vm" transform="translate(65.035 97.5)" fill="#fff" font-size="40" font-family="Montserrat-SemiBold, Montserrat" font-weight="600" letter-spacing="0.01em"><tspan x="0" y="0">?</tspan></text>
        </g>
      </g>
      <g id="Group_2815" data-name="Group 2815" transform="translate(34474.094 22277.633)">
        <g id="Group_2827" data-name="Group 2827" transform="translate(10.914 -0.001)">
          <g transform="matrix(1, 0, 0, 1, -850.72, -778.61)" filter="url(#PO-11)">
            <rect id="PO-35" data-name="PO" width="398.57" height="166" rx="29" transform="translate(850.72 778.61)" fill="#56b1a6"/>
          </g>
          <g id="Group_2206-11" data-name="Group 2206" transform="translate(20.535 37.502)">
            <g id="Ellipse_1323-11" data-name="Ellipse 1323" transform="translate(12)" fill="none" stroke="#fff" stroke-width="5">
              <ellipse cx="46" cy="45.5" rx="46" ry="45.5" stroke="none"/>
              <ellipse cx="46" cy="45.5" rx="43.5" ry="43" fill="none"/>
            </g>
            <rect id="Rectangle_791-9" data-name="Rectangle 791" width="36" height="38" transform="translate(0 27)" fill="none"/>
            <g id="Group_2819" data-name="Group 2819" transform="translate(45.841 114.273) rotate(-90)">
              <path id="Path_1833-5" data-name="Path 1833" d="M138.487,76.445a1.127,1.127,0,0,0-.159-.1l-17.453-11.3a2.023,2.023,0,0,0-1.989-.048.8.8,0,0,0-.451.643v5.949H95.822c-.844,0-1.783.119-1.783.595V81.7c.112.6.838,1.088,1.783,1.19h22.613v5.354c.014.356.339.677.844.833h.563a1.973,1.973,0,0,0,1.032-.3l17.453-11.243C138.846,77.261,138.917,76.773,138.487,76.445Z" transform="translate(-77.15 -64.756)" fill="#fff"/>
              <path id="Path_1834-4" data-name="Path 1834" d="M64.1,122.122c-.777,0-1.408.4-1.408.892v9.518c0,.493.63.892,1.408.892s1.408-.4,1.408-.892v-9.518C65.509,122.521,64.879,122.122,64.1,122.122Z" transform="translate(-51.434 -115.59)" fill="#fff"/>
              <path id="Path_1835-4" data-name="Path 1835" d="M32.755,122.122c-.777,0-1.408.4-1.408.892v9.518c0,.493.63.892,1.408.892s1.408-.4,1.408-.892v-9.518C34.162,122.521,33.532,122.122,32.755,122.122Z" transform="translate(-25.717 -115.59)" fill="#fff"/>
              <path id="Path_1836-4" data-name="Path 1836" d="M1.408,122.122c-.777,0-1.408.4-1.408.892v9.518c0,.493.63.892,1.408.892s1.408-.4,1.408-.892v-9.518C2.815,122.521,2.185,122.122,1.408,122.122Z" transform="translate(0 -115.59)" fill="#fff"/>
            </g>
            <g id="Group_2820" data-name="Group 2820" transform="translate(70.161 -24.345) rotate(90)">
              <path id="Path_1833-6" data-name="Path 1833" d="M138.487,76.445a1.127,1.127,0,0,0-.159-.1l-17.453-11.3a2.023,2.023,0,0,0-1.989-.048.8.8,0,0,0-.451.643v5.949H95.822c-.844,0-1.783.119-1.783.595V81.7c.112.6.838,1.088,1.783,1.19h22.613v5.354c.014.356.339.677.844.833h.563a1.973,1.973,0,0,0,1.032-.3l17.453-11.243C138.846,77.261,138.917,76.773,138.487,76.445Z" transform="translate(-77.15 -64.756)" fill="#fff"/>
              <path id="Path_1834-5" data-name="Path 1834" d="M64.1,122.122c-.777,0-1.408.4-1.408.892v9.518c0,.493.63.892,1.408.892s1.408-.4,1.408-.892v-9.518C65.509,122.521,64.879,122.122,64.1,122.122Z" transform="translate(-51.434 -115.59)" fill="#fff"/>
              <path id="Path_1835-5" data-name="Path 1835" d="M32.755,122.122c-.777,0-1.408.4-1.408.892v9.518c0,.493.63.892,1.408.892s1.408-.4,1.408-.892v-9.518C34.162,122.521,33.532,122.122,32.755,122.122Z" transform="translate(-25.717 -115.59)" fill="#fff"/>
              <path id="Path_1836-5" data-name="Path 1836" d="M1.408,122.122c-.777,0-1.408.4-1.408.892v9.518c0,.493.63.892,1.408.892s1.408-.4,1.408-.892v-9.518C2.815,122.521,2.185,122.122,1.408,122.122Z" transform="translate(0 -115.59)" fill="#fff"/>
            </g>
          </g>
          <g id="Group_2806-11" data-name="Group 2806" transform="translate(144 23.637)">
            <text id="vm-27" data-name="vm" transform="translate(1 72)" fill="#fff" font-size="40" font-family="Montserrat-SemiBold, Montserrat" font-weight="600" letter-spacing="0.01em"><tspan x="0" y="0">Collector</tspan></text>
          </g>
        </g>
        <g id="Group_2816" data-name="Group 2816" transform="translate(10.916 70.841)">
          <path id="Path_1833-7" data-name="Path 1833" d="M138.487,76.445a1.127,1.127,0,0,0-.159-.1l-17.453-11.3a2.023,2.023,0,0,0-1.989-.048.8.8,0,0,0-.451.643v5.949H95.822c-.844,0-1.783.119-1.783.595V81.7c.112.6.838,1.088,1.783,1.19h22.613v5.354c.014.356.339.677.844.833h.563a1.973,1.973,0,0,0,1.032-.3l17.453-11.243C138.846,77.261,138.917,76.773,138.487,76.445Z" transform="translate(-77.15 -64.756)" fill="#fff"/>
          <path id="Path_1834-6" data-name="Path 1834" d="M64.1,122.122c-.777,0-1.408.4-1.408.892v9.518c0,.493.63.892,1.408.892s1.408-.4,1.408-.892v-9.518C65.509,122.521,64.879,122.122,64.1,122.122Z" transform="translate(-51.434 -115.59)" fill="#fff"/>
          <path id="Path_1835-6" data-name="Path 1835" d="M32.755,122.122c-.777,0-1.408.4-1.408.892v9.518c0,.493.63.892,1.408.892s1.408-.4,1.408-.892v-9.518C34.162,122.521,33.532,122.122,32.755,122.122Z" transform="translate(-25.717 -115.59)" fill="#fff"/>
          <path id="Path_1836-6" data-name="Path 1836" d="M1.408,122.122c-.777,0-1.408.4-1.408.892v9.518c0,.493.63.892,1.408.892s1.408-.4,1.408-.892v-9.518C2.815,122.521,2.185,122.122,1.408,122.122Z" transform="translate(0 -115.59)" fill="#fff"/>
        </g>
        <g id="Sources" transform="translate(-787.992 -95.268)">
          <g transform="matrix(1, 0, 0, 1, -51.81, -683.35)" filter="url(#bc)">
            <g id="bc-2" data-name="bc" transform="translate(88.66 683.35)" fill="#313671" stroke="#56b1a6" stroke-width="3">
              <rect width="571.772" height="356.535" rx="50" stroke="none"/>
              <rect x="1.5" y="1.5" width="568.772" height="353.535" rx="48.5" fill="none"/>
            </g>
          </g>
          <text id="Kubernetes" transform="translate(173.684 72.931)" fill="#fff" font-size="40" font-family="Montserrat-SemiBold, Montserrat" font-weight="600" letter-spacing="-0.063em"><tspan x="0" y="0">Kubernetes</tspan></text>
          <path id="path3059-3" data-name="path3059" d="M146.684,274.06a2.2,2.2,0,0,0-2.076,2.307c0,.019,0,.038,0,.058,0,.173-.01.382,0,.532a17.314,17.314,0,0,0,.284,1.974,19.388,19.388,0,0,1,.231,3.766,2.265,2.265,0,0,1-.674,1.073l-.049.878a27.012,27.012,0,0,0-3.752.577,26.7,26.7,0,0,0-13.564,7.749c-.229-.156-.63-.444-.75-.532a1.64,1.64,0,0,1-1.233-.12,19.384,19.384,0,0,1-2.8-2.528,17.3,17.3,0,0,0-1.366-1.451c-.127-.109-.32-.256-.461-.368a2.469,2.469,0,0,0-1.446-.546,2,2,0,0,0-1.654.732,2.2,2.2,0,0,0,.51,3.06l.031.022c.137.111.3.253.43.346a17.305,17.305,0,0,0,1.721,1.007,19.378,19.378,0,0,1,3.087,2.169,2.309,2.309,0,0,1,.417,1.2l.665.594A26.862,26.862,0,0,0,120,315.283l-.869.253a2.877,2.877,0,0,1-.892.9,19.379,19.379,0,0,1-3.721.612,17.371,17.371,0,0,0-1.992.16c-.159.03-.38.088-.554.129l-.018,0-.031.009a2.083,2.083,0,1,0,.923,4.045l.031,0c.014,0,.026-.01.04-.013.172-.038.387-.08.537-.12a17.35,17.35,0,0,0,1.863-.714,19.412,19.412,0,0,1,3.619-1.065,2.292,2.292,0,0,1,1.193.421l.9-.155A27.014,27.014,0,0,0,133,334.693l-.377.9a2.057,2.057,0,0,1,.185,1.174,20.282,20.282,0,0,1-1.879,3.377,17.385,17.385,0,0,0-1.113,1.659c-.082.156-.187.394-.266.559a2.084,2.084,0,1,0,3.748,1.779l0,0s0,0,0,0c.079-.162.191-.375.257-.528a17.312,17.312,0,0,0,.6-1.9c.549-1.38.851-2.827,1.607-3.729a1.682,1.682,0,0,1,.895-.436l.47-.852a26.867,26.867,0,0,0,19.157.049c.132.234.378.685.444.8a1.643,1.643,0,0,1,1.06.643,19.377,19.377,0,0,1,1.424,3.491,17.372,17.372,0,0,0,.6,1.9c.067.154.178.37.257.532a2.085,2.085,0,1,0,3.752-1.774c-.079-.164-.188-.4-.271-.559a17.312,17.312,0,0,0-1.113-1.655,19.4,19.4,0,0,1-1.841-3.3,1.628,1.628,0,0,1,.16-1.224,7.142,7.142,0,0,1-.346-.838,27.013,27.013,0,0,0,11.967-15.054c.269.042.735.125.887.155a1.64,1.64,0,0,1,1.162-.43,19.41,19.41,0,0,1,3.619,1.065,17.38,17.38,0,0,0,1.863.719c.15.04.365.078.537.115.014,0,.026.01.04.013l.031,0a2.083,2.083,0,1,0,.923-4.045c-.178-.04-.43-.109-.6-.142a17.363,17.363,0,0,0-1.991-.16,19.383,19.383,0,0,1-3.721-.612,2.328,2.328,0,0,1-.9-.9l-.838-.244a26.967,26.967,0,0,0-4.325-18.682c.215-.2.621-.555.736-.661a1.639,1.639,0,0,1,.39-1.175,19.372,19.372,0,0,1,3.087-2.169,17.358,17.358,0,0,0,1.725-1.007c.134-.1.316-.255.457-.368a2.087,2.087,0,1,0-2.586-3.247c-.142.112-.334.259-.461.368a17.349,17.349,0,0,0-1.371,1.45,19.448,19.448,0,0,1-2.8,2.533,2.312,2.312,0,0,1-1.26.138l-.79.563a27.206,27.206,0,0,0-17.232-8.326c-.018-.277-.043-.777-.049-.927a1.642,1.642,0,0,1-.679-1.038,19.427,19.427,0,0,1,.235-3.766,17.31,17.31,0,0,0,.284-1.974c.006-.167,0-.409,0-.59A2.2,2.2,0,0,0,146.684,274.06Zm-2.6,16.1-.617,10.889-.044.022a1.83,1.83,0,0,1-2.905,1.4l-.018.009-8.929-6.329a21.385,21.385,0,0,1,10.3-5.611A21.9,21.9,0,0,1,144.084,290.161Zm5.2,0a21.563,21.563,0,0,1,12.437,6l-8.871,6.289-.031-.013a1.833,1.833,0,0,1-2.91-1.4l-.009,0Zm-20.953,10.06,8.152,7.292-.009.044a1.829,1.829,0,0,1-.719,3.145l-.009.035-10.45,3.016A21.38,21.38,0,0,1,128.334,300.22Zm36.642,0a21.776,21.776,0,0,1,3.127,13.493l-10.5-3.025-.009-.044a1.831,1.831,0,0,1-.719-3.145l0-.022Zm-19.964,7.851h3.34l2.076,2.595-.745,3.238-3,1.441-3.007-1.446-.745-3.238Zm10.707,8.88a1.813,1.813,0,0,1,.421.031l.018-.022,10.809,1.827a21.407,21.407,0,0,1-8.654,10.871l-4.2-10.135.013-.018a1.837,1.837,0,0,1,1.588-2.555ZM137.564,317a1.83,1.83,0,0,1,1.654,2.55l.031.04L135.1,329.623a21.494,21.494,0,0,1-8.627-10.8l10.716-1.819.018.022A1.853,1.853,0,0,1,137.564,317Zm9.053,4.4a1.846,1.846,0,0,1,1.677.962h.04l5.283,9.545a21.921,21.921,0,0,1-2.111.59,21.466,21.466,0,0,1-11.714-.6l5.269-9.527h.009A1.832,1.832,0,0,1,146.617,321.4Z" transform="translate(-22.781 -245.35)" fill="#fff" stroke="#fff" stroke-width="0.25"/>
          <g id="Group_2821" data-name="Group 2821" transform="translate(129.551 123.842)">
            <text id="vm-28" data-name="vm" transform="translate(16.866 35.501)" fill="#fff" font-size="28" font-family="Montserrat-Regular, Montserrat" letter-spacing="0.01em"><tspan x="0" y="0">A/app1</tspan></text>
            <g id="PO-36" data-name="PO" fill="none" stroke="#fff" stroke-miterlimit="10" stroke-width="2">
              <rect width="127.733" height="51.002" rx="16" stroke="none"/>
              <rect x="1" y="1" width="125.733" height="49.002" rx="15" fill="none"/>
            </g>
          </g>
          <g id="Group_2822" data-name="Group 2822" transform="translate(129.551 198.533)">
            <text id="vm-29" data-name="vm" transform="translate(13.866 35.501)" fill="#fff" font-size="28" font-family="Montserrat-Regular, Montserrat" letter-spacing="0.01em"><tspan x="0" y="0">A/app2</tspan></text>
            <g id="PO-37" data-name="PO" fill="none" stroke="#fff" stroke-miterlimit="10" stroke-width="2">
              <rect width="127.733" height="51.002" rx="16" stroke="none"/>
              <rect x="1" y="1" width="125.733" height="49.002" rx="15" fill="none"/>
            </g>
          </g>
          <g id="Group_2823" data-name="Group 2823" transform="translate(129.551 273.227)">
            <text id="vm-30" data-name="vm" transform="translate(10.866 35.501)" fill="#fff" font-size="28" font-family="Montserrat-Regular, Montserrat" letter-spacing="0.01em"><tspan x="0" y="0">A/other</tspan></text>
            <g id="PO-38" data-name="PO" fill="none" stroke="#fff" stroke-miterlimit="10" stroke-width="2">
              <rect width="127.733" height="51.002" rx="16" stroke="none"/>
              <rect x="1" y="1" width="125.733" height="49.002" rx="15" fill="none"/>
            </g>
          </g>
          <g id="Group_2824" data-name="Group 2824" transform="translate(281.684 123.844)">
            <text id="vm-31" data-name="vm" transform="translate(16.866 35.501)" fill="#fff" font-size="28" font-family="Montserrat-Regular, Montserrat" letter-spacing="0.01em"><tspan x="0" y="0">B/app1</tspan></text>
            <g id="PO-39" data-name="PO" fill="none" stroke="#fff" stroke-miterlimit="10" stroke-width="2">
              <rect width="127.733" height="51.002" rx="16" stroke="none"/>
              <rect x="1" y="1" width="125.733" height="49.002" rx="15" fill="none"/>
            </g>
          </g>
          <g id="Group_2825" data-name="Group 2825" transform="translate(281.684 198.535)">
            <text id="vm-32" data-name="vm" transform="translate(10.865 35.5)" fill="#fff" font-size="28" font-family="Montserrat-Regular, Montserrat" letter-spacing="0.01em"><tspan x="0" y="0">B/other</tspan></text>
            <g id="PO-40" data-name="PO" fill="none" stroke="#fff" stroke-miterlimit="10" stroke-width="2">
              <rect width="127.733" height="51.002" rx="16" stroke="none"/>
              <rect x="1" y="1" width="125.733" height="49.002" rx="15" fill="none"/>
            </g>
          </g>
          <g id="Group_2826" data-name="Group 2826" transform="translate(433.816 123.844)">
            <text id="vm-33" data-name="vm" transform="translate(11.365 35.5)" fill="#fff" font-size="28" font-family="Montserrat-Regular, Montserrat" letter-spacing="0.01em"><tspan x="0" y="0">C/other</tspan></text>
            <g id="PO-41" data-name="PO" fill="none" stroke="#fff" stroke-miterlimit="10" stroke-width="2">
              <rect width="127.733" height="51.002" rx="16" stroke="none"/>
              <rect x="1" y="1" width="125.733" height="49.002" rx="15" fill="none"/>
            </g>
          </g>
          <g id="Group_2828" data-name="Group 2828" transform="translate(776.794 210.408) rotate(-180)">
            <g transform="matrix(-1, 0, 0, -1, 828.61, 893.76)" filter="url(#Path_1833)">
              <path id="Path_1833-8" data-name="Path 1833" d="M111.6,31.712a2.833,2.833,0,0,1-.4.253L67.383,60.345a5.08,5.08,0,0,1-4.994.12,2.009,2.009,0,0,1-1.131-1.614V43.914H4.477c-2.12,0-4.477-.3-4.477-1.494v-23.9c.28-1.516,2.1-2.732,4.477-2.987h56.78V2.091c.034-.894.852-1.7,2.12-2.091h1.414a4.953,4.953,0,0,1,2.592.747l43.822,28.231C112.506,29.663,112.685,30.887,111.6,31.712Z" transform="translate(786.2 893.76) rotate(-180)" fill="#56b1a6"/>
            </g>
            <path id="Path_1834-7" data-name="Path 1834" d="M3.534,28.38C1.582,28.38,0,27.377,0,26.14V2.241C0,1,1.582,0,3.534,0S7.068,1,7.068,2.241v23.9C7.068,27.377,5.486,28.38,3.534,28.38Z" transform="translate(28.272 16.281)" fill="#56b1a6"/>
            <path id="Path_1835-7" data-name="Path 1835" d="M3.534,28.38C1.582,28.38,0,27.377,0,26.14V2.241C0,1,1.582,0,3.534,0S7.068,1,7.068,2.241v23.9C7.068,27.377,5.486,28.38,3.534,28.38Z" transform="translate(14.136 16.281)" fill="#56b1a6"/>
            <path id="Path_1836-7" data-name="Path 1836" d="M3.534,28.38C1.582,28.38,0,27.377,0,26.14V2.241C0,1,1.582,0,3.534,0S7.068,1,7.068,2.241v23.9C7.068,27.377,5.486,28.38,3.534,28.38Z" transform="translate(0 16.281)" fill="#56b1a6"/>
          </g>
        </g>
      </g>
    </g>
    <path id="Path_7943" data-name="Path 7943" d="M-.025,210.234H61.231s11.707.121,17.152-5.8,4.629-17.885,4.629-17.885V20.353S82.4,9,87.461,3.909,103.247,0,103.247,0h58.919" transform="translate(36772.273 22088.5)" fill="none" stroke="#56b1a6" stroke-linecap="round" stroke-width="8"/>
    <path id="Path_7944" data-name="Path 7944" d="M-.025,297.288H84.4s12.351-1.506,17.881-6.916,4.241-14.726,4.241-14.726V19.058s.435-9.72,4.685-14.481S123.526.016,123.526.016H143.8" transform="translate(37541.273 21761.814)" fill="none" stroke="#496bb8" stroke-linecap="round" stroke-width="8"/>
    <path id="Path_7945" data-name="Path 7945" d="M-.025,0H20.929S32.171-.485,37.313,3.8s4.181,13.335,4.181,13.335V616.827s.257,8.344,6.271,12.544,17.785,4.254,17.785,4.254H161.4" transform="translate(36772.273 22372.363)" fill="none" stroke="#56b1a6" stroke-linecap="round" stroke-width="8"/>
    <path id="Path_7946" data-name="Path 7946" d="M-.025.016H77.511S90.947.031,98.2,7.854s8.325,23.454,8.325,23.454V278.193s.862,9.1,5.157,13.875,12.025,5.22,12.025,5.22H143.8" transform="translate(37541.273 22657.814)" fill="none" stroke="#496bb8" stroke-linecap="round" stroke-width="8"/>
    <path id="Path_7947" data-name="Path 7947" d="M-.025-.013H81.094s15.333-1.318,22.449,6.008,6.018,23.295,6.018,23.295V286.247s-.085,8.721,4.2,13.066,12.938,4.313,12.938,4.313h33.9" transform="translate(36772.273 22333.477)" fill="none" stroke="#56b1a6" stroke-linecap="round" stroke-width="8"/>
    <path id="Path_7948" data-name="Path 7948" d="M-.025.016H130.252" transform="translate(37541.273 22096.088)" fill="none" stroke="#496bb8" stroke-linecap="round" stroke-width="8"/>
    <path id="Path_7949" data-name="Path 7949" d="M-.025.016H130.252" transform="translate(37541.273 22622.088)" fill="none" stroke="#496bb8" stroke-linecap="round" stroke-width="8"/>
    <path id="Path_7950" data-name="Path 7950" d="M-.025.016H152.369" transform="translate(38202.273 21749.088)" fill="none" stroke="#424c97" stroke-linecap="round" stroke-width="8"/>
    <path id="Path_7951" data-name="Path 7951" d="M-.025.016H54.525S67.389-1.411,73.135,4.564,77.51,23.917,77.51,23.917V256.75s-.25,11.211,4.908,16.808,15.725,5.579,15.725,5.579h48.631" transform="translate(38202.273 21814.088)" fill="none" stroke="#424c97" stroke-linecap="round" stroke-width="8"/>
    <path id="Polygon_738" data-name="Polygon 738" d="M11.226,6.737a3,3,0,0,1,5.548,0l9.52,23.121A3,3,0,0,1,23.52,34H4.48a3,3,0,0,1-2.774-4.142Z" transform="translate(37699.695 21747.828) rotate(90)" fill="#496bb8"/>
    <path id="Polygon_739" data-name="Polygon 739" d="M11.226,6.737a3,3,0,0,1,5.548,0l9.52,23.121A3,3,0,0,1,23.52,34H4.48a3,3,0,0,1-2.774-4.142Z" transform="translate(37697.695 22082.104) rotate(90)" fill="#496bb8"/>
    <path id="Polygon_740" data-name="Polygon 740" d="M11.226,6.737a3,3,0,0,1,5.548,0l9.52,23.121A3,3,0,0,1,23.52,34H4.48a3,3,0,0,1-2.774-4.142Z" transform="translate(37696.695 22608.104) rotate(90)" fill="#496bb8"/>
    <path id="Polygon_741" data-name="Polygon 741" d="M11.226,6.737a3,3,0,0,1,5.548,0l9.52,23.121A3,3,0,0,1,23.52,34H4.48a3,3,0,0,1-2.774-4.142Z" transform="translate(37698.695 22941.102) rotate(90)" fill="#496bb8"/>
    <path id="Polygon_742" data-name="Polygon 742" d="M11.226,6.737a3,3,0,0,1,5.548,0l9.52,23.121A3,3,0,0,1,23.52,34H4.48a3,3,0,0,1-2.774-4.142Z" transform="translate(38366.047 21735.104) rotate(90)" fill="#424c97"/>
    <path id="Polygon_743" data-name="Polygon 743" d="M11.226,6.737a3,3,0,0,1,5.548,0l9.52,23.121A3,3,0,0,1,23.52,34H4.48a3,3,0,0,1-2.774-4.142Z" transform="translate(38368.047 22079.227) rotate(90)" fill="#424c97"/>
    <path id="Polygon_745" data-name="Polygon 745" d="M11.226,6.737a3,3,0,0,1,5.548,0l9.52,23.121A3,3,0,0,1,23.52,34H4.48a3,3,0,0,1-2.774-4.142Z" transform="translate(36948.047 22074.383) rotate(90)" fill="#56b1a6"/>
    <path id="Polygon_746" data-name="Polygon 746" d="M11.226,6.737a3,3,0,0,1,5.548,0l9.52,23.121A3,3,0,0,1,23.52,34H4.48a3,3,0,0,1-2.774-4.142Z" transform="translate(36948.047 22623.102) rotate(90)" fill="#56b1a6"/>
    <path id="Polygon_747" data-name="Polygon 747" d="M11.226,6.737a3,3,0,0,1,5.548,0l9.52,23.121A3,3,0,0,1,23.52,34H4.48a3,3,0,0,1-2.774-4.142Z" transform="translate(36947.047 22991.988) rotate(90)" fill="#56b1a6"/>
    <g id="Ellipse_1430" data-name="Ellipse 1430" transform="translate(36781.875 22285.734) rotate(90)" fill="#fff" stroke="#56b1a6" stroke-width="4">
      <circle cx="13" cy="13" r="13" stroke="none"/>
      <circle cx="13" cy="13" r="11" fill="none"/>
    </g>
    <g id="Ellipse_1431" data-name="Ellipse 1431" transform="translate(36781.875 22320.371) rotate(90)" fill="#fff" stroke="#56b1a6" stroke-width="4">
      <circle cx="13" cy="13" r="13" stroke="none"/>
      <circle cx="13" cy="13" r="11" fill="none"/>
    </g>
    <g id="Ellipse_1432" data-name="Ellipse 1432" transform="translate(36781.875 22359.344) rotate(90)" fill="#fff" stroke="#56b1a6" stroke-width="4">
      <circle cx="13" cy="13" r="13" stroke="none"/>
      <circle cx="13" cy="13" r="11" fill="none"/>
    </g>
    <g id="Ellipse_1433" data-name="Ellipse 1433" transform="translate(37548.875 22046.102) rotate(90)" fill="#fff" stroke="#496bb8" stroke-width="4">
      <circle cx="13" cy="13" r="13" stroke="none"/>
      <circle cx="13" cy="13" r="11" fill="none"/>
    </g>
    <g id="Ellipse_1434" data-name="Ellipse 1434" transform="translate(37548.875 22083.104) rotate(90)" fill="#fff" stroke="#496bb8" stroke-width="4">
      <circle cx="13" cy="13" r="13" stroke="none"/>
      <circle cx="13" cy="13" r="11" fill="none"/>
    </g>
    <g id="Ellipse_1435" data-name="Ellipse 1435" transform="translate(37549.875 22608.102) rotate(90)" fill="#fff" stroke="#496bb8" stroke-width="4">
      <circle cx="13" cy="13" r="13" stroke="none"/>
      <circle cx="13" cy="13" r="11" fill="none"/>
    </g>
    <g id="Ellipse_1436" data-name="Ellipse 1436" transform="translate(37549.875 22644.83) rotate(90)" fill="#fff" stroke="#496bb8" stroke-width="4">
      <circle cx="13" cy="13" r="13" stroke="none"/>
      <circle cx="13" cy="13" r="11" fill="none"/>
    </g>
    <g id="Ellipse_1437" data-name="Ellipse 1437" transform="translate(38211.875 21736.104) rotate(90)" fill="#fff" stroke="#424c97" stroke-width="4">
      <circle cx="13" cy="13" r="13" stroke="none"/>
      <circle cx="13" cy="13" r="11" fill="none"/>
    </g>
    <g id="Ellipse_1438" data-name="Ellipse 1438" transform="translate(38211.875 21800.953) rotate(90)" fill="#fff" stroke="#424c97" stroke-width="4">
      <circle cx="13" cy="13" r="13" stroke="none"/>
      <circle cx="13" cy="13" r="11" fill="none"/>
    </g>
    <g id="v2" transform="translate(35438.602 21386.059)" opacity="0.814">
      <g id="Screenshot_2022-09-30_at_22.43.17_adobe_express" data-name="Screenshot 2022-09-30 at 22.43.17 adobe express" transform="translate(159.786 146.214)">
        <path id="Path_2151" data-name="Path 2151" d="M344.884,298.5c-4.739,0-9.371-.022-14,.019a1.77,1.77,0,0,1-1.787-1q-9.942-17.284-19.933-34.539c-1.862-3.225-3.719-6.453-5.519-9.712a1.72,1.72,0,0,1-.01-1.433q8.914-15.577,17.9-31.112,2.389-4.141,4.779-8.278c.23-.4.488-.78.867-1.382.861,1.463,1.634,2.762,2.389,4.07,2.154,3.721,4.286,7.457,6.465,11.164a1.78,1.78,0,0,1-.014,2.059c-3.842,6.591-7.638,13.211-11.45,19.82-.662,1.148-1.326,2.3-2.016,3.427a1.654,1.654,0,0,0,0,1.894q8.654,14.924,17.262,29.876,4.03,6.98,8.068,13.954c.174.3.293.634.54,1.177Z" transform="translate(-247.615 -185.848)" fill="#424c97"/>
        <path id="Path_2152" data-name="Path 2152" d="M179.5,303.853c5.366-9.3,10.689-18.528,16.123-27.952.909,1.547,1.725,2.916,2.521,4.3,2.146,3.72,4.268,7.454,6.437,11.16a1.418,1.418,0,0,1-.007,1.655q-12.793,22.116-25.539,44.259a1.358,1.358,0,0,1-1.313.865c-5.67-.03-11.341-.015-17.011-.02-.238,0-.475-.049-.926-.1C166.391,326.567,172.925,315.243,179.5,303.853Z" transform="translate(-159.786 -225.48)" fill="#424c97"/>
        <path id="Path_2153" data-name="Path 2153" d="M386.437,306.7c-2.654-4.592-5.273-9.112-7.84-13.663a1.738,1.738,0,0,1-.083-1.442c2.839-5.014,5.737-9.994,8.623-14.981.087-.151.2-.285.421-.585l35.836,62.092c-.573.035-.914.073-1.254.073-5.527,0-11.054-.005-16.58.014a1.352,1.352,0,0,1-1.372-.756Q395.361,322.093,386.437,306.7Z" transform="translate(-293.403 -225.557)" fill="#424c97"/>
        <path id="Path_2154" data-name="Path 2154" d="M280.237,194.876c-1.732,3.006-3.43,5.941-5.256,9.1-.975-1.658-1.831-3.085-2.666-4.525-2.085-3.594-4.154-7.2-6.25-10.785a1.578,1.578,0,0,1-.043-1.848q7.96-13.649,15.833-27.35c2.363-4.1,4.7-8.206,7.059-12.307.152-.264.341-.508.634-.945.843,1.414,1.6,2.649,2.327,3.9,2.186,3.782,4.351,7.577,6.543,11.356a1.6,1.6,0,0,1,.091,1.8q-9.015,15.58-18,31.179C280.441,194.572,280.352,194.686,280.237,194.876Z" transform="translate(-224.549 -146.214)" fill="#424c97"/>
        <path id="Path_2155" data-name="Path 2155" d="M264.09,359.569c-3.4,5.9-6.759,11.734-10.113,17.569-.292.509-.555.916-1.287.912-5.781-.033-11.562-.019-17.343-.023-.142,0-.283-.031-.658-.075L255.9,341.2a4.255,4.255,0,0,1,.521.585c2.872,4.957,5.748,9.912,8.576,14.894a1.846,1.846,0,0,1-.025,1.325A9.544,9.544,0,0,1,264.09,359.569Z" transform="translate(-205.568 -265.393)" fill="#424c97"/>
      </g>
      <g id="Group_3" data-name="Group 3" transform="translate(317.002 240.908)">
        <path id="Path_50" data-name="Path 50" d="M564.163,408.03V390.3H566.7v15.528h9.6v2.2Z" transform="translate(-564.163 -390.095)" fill="#424c97"/>
        <path id="Path_51" data-name="Path 51" d="M640.33,407.914a10.171,10.171,0,0,1-3.762-.684,8.989,8.989,0,0,1-3-1.912,8.825,8.825,0,0,1-1.976-2.875,9.472,9.472,0,0,1,0-7.194,8.825,8.825,0,0,1,1.976-2.875,9.024,9.024,0,0,1,2.989-1.912,10.747,10.747,0,0,1,7.51-.013,9.044,9.044,0,0,1,2.989,1.9,8.6,8.6,0,0,1,1.976,2.875,9.771,9.771,0,0,1,0,7.245,8.588,8.588,0,0,1-1.976,2.875,9.029,9.029,0,0,1-2.989,1.9A10.138,10.138,0,0,1,640.33,407.914Zm0-2.255a7.2,7.2,0,0,0,2.723-.506,6.477,6.477,0,0,0,2.178-1.431,6.675,6.675,0,0,0,1.444-2.166,7.336,7.336,0,0,0,0-5.421,6.679,6.679,0,0,0-1.444-2.166,6.482,6.482,0,0,0-2.178-1.432,7.646,7.646,0,0,0-5.471,0,6.577,6.577,0,0,0-3.648,3.6,7.333,7.333,0,0,0,0,5.421,6.576,6.576,0,0,0,3.648,3.6A7.266,7.266,0,0,0,640.33,405.659Z" transform="translate(-604.942 -389.777)" fill="#424c97"/>
        <path id="Path_52" data-name="Path 52" d="M727.636,407.914a10.308,10.308,0,0,1-3.774-.671,8.793,8.793,0,0,1-4.965-4.775,9.606,9.606,0,0,1,0-7.245,8.738,8.738,0,0,1,1.989-2.875,9,9,0,0,1,3-1.9,11.138,11.138,0,0,1,7.65.013,7.617,7.617,0,0,1,2.964,2.052l-1.571,1.571a6.994,6.994,0,0,0-2.368-1.558,7.637,7.637,0,0,0-2.774-.494,7.743,7.743,0,0,0-2.825.506,6.738,6.738,0,0,0-2.254,1.419,6.3,6.3,0,0,0-1.469,2.166,7.331,7.331,0,0,0,0,5.421,6.437,6.437,0,0,0,1.469,2.178,6.656,6.656,0,0,0,2.242,1.431,7.632,7.632,0,0,0,2.812.506,8.4,8.4,0,0,0,2.723-.443,6.689,6.689,0,0,0,2.419-1.482l1.444,1.925a8.983,8.983,0,0,1-3.078,1.685A11.731,11.731,0,0,1,727.636,407.914Zm4.281-2.583v-6.586h2.432v6.915Z" transform="translate(-658.305 -389.777)" fill="#424c97"/>
        <path id="Path_53" data-name="Path 53" d="M810.511,407.914a10.311,10.311,0,0,1-3.774-.671,8.794,8.794,0,0,1-4.965-4.775,9.605,9.605,0,0,1,0-7.245,8.736,8.736,0,0,1,1.989-2.875,9,9,0,0,1,3-1.9,11.136,11.136,0,0,1,7.65.013,7.611,7.611,0,0,1,2.964,2.052l-1.57,1.571a7,7,0,0,0-2.369-1.558,7.638,7.638,0,0,0-2.774-.494,7.741,7.741,0,0,0-2.824.506,6.737,6.737,0,0,0-2.255,1.419,6.309,6.309,0,0,0-1.469,2.166,7.331,7.331,0,0,0,0,5.421,6.442,6.442,0,0,0,1.469,2.178,6.66,6.66,0,0,0,2.242,1.431,7.633,7.633,0,0,0,2.812.506,8.4,8.4,0,0,0,2.723-.443,6.688,6.688,0,0,0,2.42-1.482l1.443,1.925a8.983,8.983,0,0,1-3.078,1.685A11.734,11.734,0,0,1,810.511,407.914Zm4.281-2.583v-6.586h2.431v6.915Z" transform="translate(-708.959 -389.777)" fill="#424c97"/>
        <path id="Path_54" data-name="Path 54" d="M887.652,408.03V390.3h2.533V408.03Z" transform="translate(-761.884 -390.095)" fill="#424c97"/>
        <path id="Path_55" data-name="Path 55" d="M940.427,408.03V390.3H942.5l11.729,14.565h-1.089V390.3h2.533V408.03H953.6l-11.728-14.565h1.089V408.03Z" transform="translate(-794.141 -390.095)" fill="#424c97"/>
        <path id="Path_56" data-name="Path 56" d="M1031.643,407.914a10.311,10.311,0,0,1-3.774-.671,8.792,8.792,0,0,1-4.965-4.775,9.605,9.605,0,0,1,0-7.245,8.734,8.734,0,0,1,1.989-2.875,9,9,0,0,1,3-1.9,11.136,11.136,0,0,1,7.65.013,7.618,7.618,0,0,1,2.964,2.052l-1.571,1.571a6.993,6.993,0,0,0-2.368-1.558,7.636,7.636,0,0,0-2.774-.494,7.739,7.739,0,0,0-2.824.506,6.739,6.739,0,0,0-2.255,1.419,6.308,6.308,0,0,0-1.469,2.166,7.328,7.328,0,0,0,0,5.421,6.441,6.441,0,0,0,1.469,2.178,6.662,6.662,0,0,0,2.242,1.431,7.633,7.633,0,0,0,2.812.506,8.4,8.4,0,0,0,2.723-.443,6.682,6.682,0,0,0,2.419-1.482l1.444,1.925a8.984,8.984,0,0,1-3.078,1.685A11.733,11.733,0,0,1,1031.643,407.914Zm4.281-2.583v-6.586h2.432v6.915Z" transform="translate(-844.118 -389.777)" fill="#424c97"/>
        <path id="Path_57" data-name="Path 57" d="M1160.978,408.232a7.429,7.429,0,0,1-5.5-2,7.928,7.928,0,0,1-2-5.852V390.3h2.533v9.98a6.107,6.107,0,0,0,1.3,4.332,5.683,5.683,0,0,0,7.4,0,6.111,6.111,0,0,0,1.3-4.332V390.3h2.457V400.38a7.96,7.96,0,0,1-1.988,5.852A7.422,7.422,0,0,1,1160.978,408.232Z" transform="translate(-924.362 -390.095)" fill="#424c97"/>
        <path id="Path_58" data-name="Path 58" d="M1241.762,408.03V390.3h2.077l11.729,14.565h-1.089V390.3h2.533V408.03h-2.077l-11.729-14.565h1.089V408.03Z" transform="translate(-978.32 -390.095)" fill="#424c97"/>
        <path id="Path_59" data-name="Path 59" d="M1331.023,408.03V390.3h2.533v15.528h9.6v2.2Z" transform="translate(-1032.878 -390.095)" fill="#424c97"/>
        <path id="Path_60" data-name="Path 60" d="M1408.613,405.826h10.335v2.2H1406.08V390.3h12.514v2.2h-9.981Zm-.228-7.878h9.119V400.1h-9.119Z" transform="translate(-1078.754 -390.095)" fill="#424c97"/>
        <path id="Path_61" data-name="Path 61" d="M1479.183,408.03l8.03-17.732h2.508l8.055,17.732h-2.66l-7.169-16.313h1.013l-7.169,16.313Zm3.42-4.433.684-2.026h9.98L1494,403.6Z" transform="translate(-1123.436 -390.095)" fill="#424c97"/>
        <path id="Path_62" data-name="Path 62" d="M1572.757,407.914a12.088,12.088,0,0,1-3.876-.621,7.945,7.945,0,0,1-2.913-1.608l.937-1.976a8.208,8.208,0,0,0,2.584,1.469,9.308,9.308,0,0,0,3.268.583,7.38,7.38,0,0,0,2.508-.355,2.969,2.969,0,0,0,1.418-.975,2.31,2.31,0,0,0,.456-1.406,1.917,1.917,0,0,0-.6-1.469,4.421,4.421,0,0,0-1.545-.9,17.213,17.213,0,0,0-2.09-.6q-1.139-.253-2.292-.6a10.248,10.248,0,0,1-2.1-.874,4.3,4.3,0,0,1-1.533-1.432,4.19,4.19,0,0,1-.582-2.318,4.652,4.652,0,0,1,.722-2.52,5.012,5.012,0,0,1,2.229-1.849,9.175,9.175,0,0,1,3.838-.7,11.865,11.865,0,0,1,3.065.405,8.553,8.553,0,0,1,2.635,1.165l-.836,2.027a8.143,8.143,0,0,0-2.406-1.1,9.407,9.407,0,0,0-2.458-.342,6.752,6.752,0,0,0-2.457.38,2.987,2.987,0,0,0-1.405,1.013,2.414,2.414,0,0,0-.444,1.418,1.948,1.948,0,0,0,.595,1.495,4.268,4.268,0,0,0,1.545.886,20.727,20.727,0,0,0,2.09.6q1.14.266,2.292.6a9.788,9.788,0,0,1,2.1.861,4.348,4.348,0,0,1,1.533,1.418,4.084,4.084,0,0,1,.582,2.28,4.557,4.557,0,0,1-.734,2.5,5.08,5.08,0,0,1-2.268,1.849A9.341,9.341,0,0,1,1572.757,407.914Z" transform="translate(-1176.48 -389.777)" fill="#424c97"/>
        <path id="Path_63" data-name="Path 63" d="M1649.486,408.03h-2.533V390.3h2.533Zm10.411-7.9h-10.664v-2.2H1659.9Zm-.228-9.829h2.533V408.03h-2.533Z" transform="translate(-1225.979 -390.095)" fill="#424c97"/>
        <path id="Path_64" data-name="Path 64" d="M1738.747,405.826h10.335v2.2h-12.869V390.3h12.514v2.2h-9.981Zm-.228-7.878h9.119V400.1h-9.119Z" transform="translate(-1280.536 -390.095)" fill="#424c97"/>
        <path id="Path_65" data-name="Path 65" d="M1816.224,408.03V390.3h7.472a10.782,10.782,0,0,1,5,1.115,8.243,8.243,0,0,1,3.369,3.115,9.534,9.534,0,0,1,0,9.271,8.236,8.236,0,0,1-3.369,3.116,10.78,10.78,0,0,1-5,1.115Zm2.533-2.2h4.788a8.164,8.164,0,0,0,3.813-.836,6.08,6.08,0,0,0,2.495-2.343,7.306,7.306,0,0,0,0-6.978,6.1,6.1,0,0,0-2.495-2.33,8.163,8.163,0,0,0-3.812-.836h-4.788Z" transform="translate(-1329.439 -390.095)" fill="#424c97"/>
      </g>
      <g id="AXO_f_v2" data-name="AXO f v2" transform="translate(317.051 158.163)">
        <path id="Path_66" data-name="Path 66" d="M564.288,242.648l28.516-63.37h11.588L633,242.648H620.687l-24.533-57.124h4.707l-24.443,57.124Z" transform="translate(-564.288 -178.373)" fill="#424c97"/>
        <path id="Path_67" data-name="Path 67" d="M757.088,242.648l26.706-36.755v8.872l-25.439-35.487h13.308l18.921,26.253-5.432.09,18.739-26.343h12.765L791.4,214.131v-8.51l26.887,37.027H804.706l-19.916-27.883h5.341l-19.645,27.883Z" transform="translate(-682.13 -178.373)" fill="#424c97"/>
        <path id="Path_68" data-name="Path 68" d="M966.177,242.129a37.206,37.206,0,0,1-13.67-2.444,33.052,33.052,0,0,1-10.863-6.835,30.764,30.764,0,0,1-7.152-10.32,34.555,34.555,0,0,1,0-25.982,30.787,30.787,0,0,1,7.152-10.32,33.058,33.058,0,0,1,10.863-6.835,39.068,39.068,0,0,1,27.2,0,33.178,33.178,0,0,1,10.818,6.835,30.815,30.815,0,0,1,7.152,10.32,34.673,34.673,0,0,1,0,26.027,30.207,30.207,0,0,1-7.152,10.32,33.575,33.575,0,0,1-10.818,6.79A36.6,36.6,0,0,1,966.177,242.129Zm-.091-10.32a23.682,23.682,0,0,0,8.872-1.629,20.438,20.438,0,0,0,7.061-4.663,21.984,21.984,0,0,0,4.662-7.061,24.575,24.575,0,0,0,0-17.834,22.013,22.013,0,0,0-4.662-7.061,20.452,20.452,0,0,0-7.061-4.662,23.674,23.674,0,0,0-8.872-1.63,23.317,23.317,0,0,0-8.827,1.63,21.027,21.027,0,0,0-7.061,4.662,21.606,21.606,0,0,0-4.708,7.061,24.455,24.455,0,0,0,0,17.789,21.838,21.838,0,0,0,4.662,7.106,20.438,20.438,0,0,0,7.061,4.663A23.676,23.676,0,0,0,966.086,231.81Z" transform="translate(-789.012 -176.949)" fill="#424c97"/>
        <path id="Path_69" data-name="Path 69" d="M1163.767,242.648H1152v-63.37h46.261v9.867h-34.492Zm-1-34.22h31.595v9.958h-31.595Z" transform="translate(-923.504 -178.373)" fill="#424c97"/>
        <path id="Path_70" data-name="Path 70" d="M1318.716,242.648v-63.37h11.769V232.69h33.134v9.958Z" transform="translate(-1025.404 -178.373)" fill="#424c97"/>
        <path id="Path_71" data-name="Path 71" d="M1481.7,242.129a37.207,37.207,0,0,1-13.67-2.444,33.048,33.048,0,0,1-10.863-6.835,30.768,30.768,0,0,1-7.152-10.32,34.56,34.56,0,0,1,0-25.982,30.791,30.791,0,0,1,7.152-10.32,33.055,33.055,0,0,1,10.863-6.835,39.068,39.068,0,0,1,27.2,0,33.183,33.183,0,0,1,10.818,6.835,30.8,30.8,0,0,1,7.152,10.32,34.671,34.671,0,0,1,0,26.027,30.191,30.191,0,0,1-7.152,10.32,33.58,33.58,0,0,1-10.818,6.79A36.6,36.6,0,0,1,1481.7,242.129Zm-.091-10.32a23.683,23.683,0,0,0,8.872-1.629,20.439,20.439,0,0,0,7.061-4.663,21.984,21.984,0,0,0,4.662-7.061,24.574,24.574,0,0,0,0-17.834,22.013,22.013,0,0,0-4.662-7.061,20.454,20.454,0,0,0-7.061-4.662,23.674,23.674,0,0,0-8.872-1.63,23.317,23.317,0,0,0-8.826,1.63,21.032,21.032,0,0,0-7.062,4.662,21.614,21.614,0,0,0-4.707,7.061,24.455,24.455,0,0,0,0,17.789,21.841,21.841,0,0,0,4.662,7.106,20.446,20.446,0,0,0,7.061,4.663A23.681,23.681,0,0,0,1481.614,231.81Z" transform="translate(-1104.11 -176.949)" fill="#424c97"/>
        <path id="Path_72" data-name="Path 72" d="M1656.166,242.648l-21-63.37h12.222l18.739,57.3h-6.065l19.464-57.3h10.864l18.92,57.3h-5.884l19.192-57.3h11.226l-21,63.37h-12.492l-17.291-51.692h3.259l-17.563,51.692Z" transform="translate(-1218.821 -178.373)" fill="#424c97"/>
        <path id="Path_2949" data-name="Path 2949" d="M87.637,145.206c3.765-2.142,7.249-1.52,9.6,1.576a6.874,6.874,0,1,1-11.028-.131A15.455,15.455,0,0,1,87.637,145.206Z" transform="translate(-57.285 -101.758)" fill="#424c97"/>
      </g>
    </g>
  </g>
</svg>
